%TF.GenerationSoftware,KiCad,Pcbnew,9.0.4*%
%TF.CreationDate,2025-09-16T01:09:41+05:30*%
%TF.ProjectId,PCB designing,50434220-6465-4736-9967-6e696e672e6b,rev?*%
%TF.SameCoordinates,Original*%
%TF.FileFunction,Soldermask,Top*%
%TF.FilePolarity,Negative*%
%FSLAX46Y46*%
G04 Gerber Fmt 4.6, Leading zero omitted, Abs format (unit mm)*
G04 Created by KiCad (PCBNEW 9.0.4) date 2025-09-16 01:09:41*
%MOMM*%
%LPD*%
G01*
G04 APERTURE LIST*
G04 Aperture macros list*
%AMRoundRect*
0 Rectangle with rounded corners*
0 $1 Rounding radius*
0 $2 $3 $4 $5 $6 $7 $8 $9 X,Y pos of 4 corners*
0 Add a 4 corners polygon primitive as box body*
4,1,4,$2,$3,$4,$5,$6,$7,$8,$9,$2,$3,0*
0 Add four circle primitives for the rounded corners*
1,1,$1+$1,$2,$3*
1,1,$1+$1,$4,$5*
1,1,$1+$1,$6,$7*
1,1,$1+$1,$8,$9*
0 Add four rect primitives between the rounded corners*
20,1,$1+$1,$2,$3,$4,$5,0*
20,1,$1+$1,$4,$5,$6,$7,0*
20,1,$1+$1,$6,$7,$8,$9,0*
20,1,$1+$1,$8,$9,$2,$3,0*%
G04 Aperture macros list end*
%ADD10C,0.000000*%
%ADD11R,2.600000X8.200000*%
%ADD12RoundRect,0.101600X-0.425000X0.600000X-0.425000X-0.600000X0.425000X-0.600000X0.425000X0.600000X0*%
%ADD13RoundRect,0.101600X0.425000X-0.600000X0.425000X0.600000X-0.425000X0.600000X-0.425000X-0.600000X0*%
%ADD14RoundRect,0.250000X-0.250000X-1.450000X0.250000X-1.450000X0.250000X1.450000X-0.250000X1.450000X0*%
%ADD15RoundRect,0.101600X-0.310000X-0.300000X0.310000X-0.300000X0.310000X0.300000X-0.310000X0.300000X0*%
%ADD16RoundRect,0.101600X0.310000X0.300000X-0.310000X0.300000X-0.310000X-0.300000X0.310000X-0.300000X0*%
%ADD17RoundRect,0.250000X-1.250000X-0.550000X1.250000X-0.550000X1.250000X0.550000X-1.250000X0.550000X0*%
G04 APERTURE END LIST*
D10*
%TO.C,U1*%
G36*
X154772588Y-66441594D02*
G01*
X154818406Y-66487412D01*
X154835000Y-66549342D01*
X154835000Y-68950658D01*
X154818406Y-69012588D01*
X154772588Y-69058406D01*
X154710658Y-69075000D01*
X153509342Y-69075000D01*
X153447412Y-69058406D01*
X153401594Y-69012588D01*
X153385000Y-68950658D01*
X153385000Y-66548660D01*
X153446705Y-66441783D01*
X153509342Y-66425000D01*
X154710658Y-66425000D01*
X154772588Y-66441594D01*
G37*
G36*
X155817588Y-68821594D02*
G01*
X155863406Y-68867412D01*
X155880000Y-68929342D01*
X155880000Y-69070658D01*
X155863406Y-69132588D01*
X155817588Y-69178406D01*
X155755658Y-69195000D01*
X155244342Y-69195000D01*
X155182412Y-69178406D01*
X155136594Y-69132588D01*
X155120000Y-69070658D01*
X155120000Y-68928660D01*
X155181705Y-68821783D01*
X155244342Y-68805000D01*
X155755658Y-68805000D01*
X155817588Y-68821594D01*
G37*
G36*
X155817588Y-68321594D02*
G01*
X155863406Y-68367412D01*
X155880000Y-68429342D01*
X155880000Y-68570658D01*
X155863406Y-68632588D01*
X155817588Y-68678406D01*
X155755658Y-68695000D01*
X155244342Y-68695000D01*
X155182412Y-68678406D01*
X155136594Y-68632588D01*
X155120000Y-68570658D01*
X155120000Y-68428660D01*
X155181705Y-68321783D01*
X155244342Y-68305000D01*
X155755658Y-68305000D01*
X155817588Y-68321594D01*
G37*
G36*
X155817588Y-67821594D02*
G01*
X155863406Y-67867412D01*
X155880000Y-67929342D01*
X155880000Y-68070658D01*
X155863406Y-68132588D01*
X155817588Y-68178406D01*
X155755658Y-68195000D01*
X155244342Y-68195000D01*
X155182412Y-68178406D01*
X155136594Y-68132588D01*
X155120000Y-68070658D01*
X155120000Y-67928660D01*
X155181705Y-67821783D01*
X155244342Y-67805000D01*
X155755658Y-67805000D01*
X155817588Y-67821594D01*
G37*
G36*
X155817588Y-66321594D02*
G01*
X155863406Y-66367412D01*
X155880000Y-66429342D01*
X155880000Y-66570658D01*
X155863406Y-66632588D01*
X155817588Y-66678406D01*
X155755658Y-66695000D01*
X155244342Y-66695000D01*
X155182412Y-66678406D01*
X155136594Y-66632588D01*
X155120000Y-66570658D01*
X155120000Y-66428660D01*
X155181705Y-66321783D01*
X155244342Y-66305000D01*
X155755658Y-66305000D01*
X155817588Y-66321594D01*
G37*
G36*
X155817588Y-66821594D02*
G01*
X155863406Y-66867412D01*
X155880000Y-66929342D01*
X155880000Y-67070658D01*
X155863406Y-67132588D01*
X155817588Y-67178406D01*
X155755658Y-67195000D01*
X155244342Y-67195000D01*
X155182412Y-67178406D01*
X155136594Y-67132588D01*
X155120000Y-67070658D01*
X155120000Y-66928660D01*
X155181705Y-66821783D01*
X155244342Y-66805000D01*
X155755658Y-66805000D01*
X155817588Y-66821594D01*
G37*
G36*
X155817588Y-67321594D02*
G01*
X155863406Y-67367412D01*
X155880000Y-67429342D01*
X155880000Y-67570658D01*
X155863406Y-67632588D01*
X155817588Y-67678406D01*
X155755658Y-67695000D01*
X155244342Y-67695000D01*
X155182412Y-67678406D01*
X155136594Y-67632588D01*
X155120000Y-67570658D01*
X155120000Y-67428660D01*
X155181705Y-67321783D01*
X155244342Y-67305000D01*
X155755658Y-67305000D01*
X155817588Y-67321594D01*
G37*
G36*
X153037588Y-68821594D02*
G01*
X153083406Y-68867412D01*
X153100000Y-68929342D01*
X153100000Y-69070658D01*
X153083406Y-69132588D01*
X153037588Y-69178406D01*
X152975658Y-69195000D01*
X152464342Y-69195000D01*
X152402412Y-69178406D01*
X152356594Y-69132588D01*
X152340000Y-69070658D01*
X152340000Y-68929342D01*
X152356594Y-68867412D01*
X152402412Y-68821594D01*
X152464342Y-68805000D01*
X152975658Y-68805000D01*
X153037588Y-68821594D01*
G37*
G36*
X153037588Y-68321594D02*
G01*
X153083406Y-68367412D01*
X153100000Y-68429342D01*
X153100000Y-68570658D01*
X153083406Y-68632588D01*
X153037588Y-68678406D01*
X152975658Y-68695000D01*
X152464342Y-68695000D01*
X152402412Y-68678406D01*
X152356594Y-68632588D01*
X152340000Y-68570658D01*
X152340000Y-68429342D01*
X152356594Y-68367412D01*
X152402412Y-68321594D01*
X152464342Y-68305000D01*
X152975658Y-68305000D01*
X153037588Y-68321594D01*
G37*
G36*
X153037588Y-67821594D02*
G01*
X153083406Y-67867412D01*
X153100000Y-67929342D01*
X153100000Y-68070658D01*
X153083406Y-68132588D01*
X153037588Y-68178406D01*
X152975658Y-68195000D01*
X152464342Y-68195000D01*
X152402412Y-68178406D01*
X152356594Y-68132588D01*
X152340000Y-68070658D01*
X152340000Y-67929342D01*
X152356594Y-67867412D01*
X152402412Y-67821594D01*
X152464342Y-67805000D01*
X152975658Y-67805000D01*
X153037588Y-67821594D01*
G37*
G36*
X153037588Y-66321594D02*
G01*
X153083406Y-66367412D01*
X153100000Y-66429342D01*
X153100000Y-66570658D01*
X153083406Y-66632588D01*
X153037588Y-66678406D01*
X152975658Y-66695000D01*
X152464342Y-66695000D01*
X152402412Y-66678406D01*
X152356594Y-66632588D01*
X152340000Y-66570658D01*
X152340000Y-66429342D01*
X152356594Y-66367412D01*
X152402412Y-66321594D01*
X152464342Y-66305000D01*
X152975658Y-66305000D01*
X153037588Y-66321594D01*
G37*
G36*
X153037588Y-66821594D02*
G01*
X153083406Y-66867412D01*
X153100000Y-66929342D01*
X153100000Y-67070658D01*
X153083406Y-67132588D01*
X153037588Y-67178406D01*
X152975658Y-67195000D01*
X152464342Y-67195000D01*
X152402412Y-67178406D01*
X152356594Y-67132588D01*
X152340000Y-67070658D01*
X152340000Y-66929342D01*
X152356594Y-66867412D01*
X152402412Y-66821594D01*
X152464342Y-66805000D01*
X152975658Y-66805000D01*
X153037588Y-66821594D01*
G37*
G36*
X153037588Y-67321594D02*
G01*
X153083406Y-67367412D01*
X153100000Y-67429342D01*
X153100000Y-67570658D01*
X153083406Y-67632588D01*
X153037588Y-67678406D01*
X152975658Y-67695000D01*
X152464342Y-67695000D01*
X152402412Y-67678406D01*
X152356594Y-67632588D01*
X152340000Y-67570658D01*
X152340000Y-67429342D01*
X152356594Y-67367412D01*
X152402412Y-67321594D01*
X152464342Y-67305000D01*
X152975658Y-67305000D01*
X153037588Y-67321594D01*
G37*
%TD*%
D11*
%TO.C,L1*%
X157000000Y-59500000D03*
X151400000Y-59500000D03*
%TD*%
D12*
%TO.C,C4*%
X152500000Y-73500000D03*
X149350000Y-73500000D03*
%TD*%
D13*
%TO.C,C3*%
X156850000Y-73500000D03*
X160000000Y-73500000D03*
%TD*%
D14*
%TO.C,R3*%
X164500000Y-73500000D03*
X163000000Y-73500000D03*
%TD*%
D15*
%TO.C,C2*%
X158000000Y-67420000D03*
X158000000Y-66500000D03*
%TD*%
D16*
%TO.C,C1*%
X150500000Y-67500000D03*
X150500000Y-68420000D03*
%TD*%
D14*
%TO.C,R4*%
X167000000Y-73500000D03*
X168500000Y-73500000D03*
%TD*%
%TO.C,R2*%
X144750000Y-73500000D03*
X146250000Y-73500000D03*
%TD*%
%TO.C,R1*%
X140750000Y-73500000D03*
X142250000Y-73500000D03*
%TD*%
D17*
%TO.C,C6*%
X161500000Y-65000000D03*
X165900000Y-65000000D03*
%TD*%
%TO.C,C5*%
X142100000Y-65000000D03*
X146500000Y-65000000D03*
%TD*%
M02*
