%TF.GenerationSoftware,KiCad,Pcbnew,9.0.4*%
%TF.CreationDate,2025-09-16T01:09:41+05:30*%
%TF.ProjectId,PCB designing,50434220-6465-4736-9967-6e696e672e6b,rev?*%
%TF.SameCoordinates,Original*%
%TF.FileFunction,Paste,Top*%
%TF.FilePolarity,Positive*%
%FSLAX46Y46*%
G04 Gerber Fmt 4.6, Leading zero omitted, Abs format (unit mm)*
G04 Created by KiCad (PCBNEW 9.0.4) date 2025-09-16 01:09:41*
%MOMM*%
%LPD*%
G01*
G04 APERTURE LIST*
G04 Aperture macros list*
%AMRoundRect*
0 Rectangle with rounded corners*
0 $1 Rounding radius*
0 $2 $3 $4 $5 $6 $7 $8 $9 X,Y pos of 4 corners*
0 Add a 4 corners polygon primitive as box body*
4,1,4,$2,$3,$4,$5,$6,$7,$8,$9,$2,$3,0*
0 Add four circle primitives for the rounded corners*
1,1,$1+$1,$2,$3*
1,1,$1+$1,$4,$5*
1,1,$1+$1,$6,$7*
1,1,$1+$1,$8,$9*
0 Add four rect primitives between the rounded corners*
20,1,$1+$1,$2,$3,$4,$5,0*
20,1,$1+$1,$4,$5,$6,$7,0*
20,1,$1+$1,$6,$7,$8,$9,0*
20,1,$1+$1,$8,$9,$2,$3,0*%
G04 Aperture macros list end*
%ADD10C,0.000000*%
%ADD11R,2.600000X8.200000*%
%ADD12R,0.850000X1.200000*%
%ADD13RoundRect,0.250000X-0.250000X-1.450000X0.250000X-1.450000X0.250000X1.450000X-0.250000X1.450000X0*%
%ADD14RoundRect,0.050000X-0.260000X-0.075000X0.260000X-0.075000X0.260000X0.075000X-0.260000X0.075000X0*%
%ADD15R,0.620000X0.600000*%
%ADD16RoundRect,0.250000X-1.250000X-0.550000X1.250000X-0.550000X1.250000X0.550000X-1.250000X0.550000X0*%
G04 APERTURE END LIST*
D10*
%TO.C,U1*%
G36*
X154720000Y-66597929D02*
G01*
X154720000Y-67602071D01*
X154667071Y-67655000D01*
X153552929Y-67655000D01*
X153500000Y-67602071D01*
X153500000Y-66597929D01*
X153552929Y-66545000D01*
X154667071Y-66545000D01*
X154720000Y-66597929D01*
G37*
G36*
X154720000Y-67897929D02*
G01*
X154720000Y-68902071D01*
X154667071Y-68955000D01*
X153552929Y-68955000D01*
X153500000Y-68902071D01*
X153500000Y-67897929D01*
X153552929Y-67845000D01*
X154667071Y-67845000D01*
X154720000Y-67897929D01*
G37*
%TD*%
D11*
%TO.C,L1*%
X157000000Y-59500000D03*
X151400000Y-59500000D03*
%TD*%
D12*
%TO.C,C4*%
X152500000Y-73500000D03*
X149350000Y-73500000D03*
%TD*%
%TO.C,C3*%
X156850000Y-73500000D03*
X160000000Y-73500000D03*
%TD*%
D13*
%TO.C,R3*%
X164500000Y-73500000D03*
X163000000Y-73500000D03*
%TD*%
D14*
%TO.C,U1*%
X155500000Y-66500000D03*
X155500000Y-67000000D03*
X155500000Y-67500000D03*
X155500000Y-68000000D03*
X155500000Y-68500000D03*
X155500000Y-69000000D03*
X152720000Y-69000000D03*
X152720000Y-68500000D03*
X152720000Y-68000000D03*
X152720000Y-67500000D03*
X152720000Y-67000000D03*
X152720000Y-66500000D03*
%TD*%
D15*
%TO.C,C2*%
X158000000Y-67420000D03*
X158000000Y-66500000D03*
%TD*%
%TO.C,C1*%
X150500000Y-67500000D03*
X150500000Y-68420000D03*
%TD*%
D13*
%TO.C,R4*%
X167000000Y-73500000D03*
X168500000Y-73500000D03*
%TD*%
%TO.C,R2*%
X144750000Y-73500000D03*
X146250000Y-73500000D03*
%TD*%
%TO.C,R1*%
X140750000Y-73500000D03*
X142250000Y-73500000D03*
%TD*%
D16*
%TO.C,C6*%
X161500000Y-65000000D03*
X165900000Y-65000000D03*
%TD*%
%TO.C,C5*%
X142100000Y-65000000D03*
X146500000Y-65000000D03*
%TD*%
M02*
