%TF.GenerationSoftware,KiCad,Pcbnew,9.0.4*%
%TF.CreationDate,2025-09-16T01:09:41+05:30*%
%TF.ProjectId,PCB designing,50434220-6465-4736-9967-6e696e672e6b,rev?*%
%TF.SameCoordinates,Original*%
%TF.FileFunction,Legend,Top*%
%TF.FilePolarity,Positive*%
%FSLAX46Y46*%
G04 Gerber Fmt 4.6, Leading zero omitted, Abs format (unit mm)*
G04 Created by KiCad (PCBNEW 9.0.4) date 2025-09-16 01:09:41*
%MOMM*%
%LPD*%
G01*
G04 APERTURE LIST*
%ADD10C,0.150000*%
%ADD11C,0.101600*%
%ADD12C,0.080000*%
%ADD13C,0.120000*%
%ADD14C,0.200000*%
%ADD15C,0.100000*%
%ADD16C,0.127000*%
G04 APERTURE END LIST*
D10*
X154123333Y-54724819D02*
X153647143Y-54724819D01*
X153647143Y-54724819D02*
X153647143Y-53724819D01*
X154980476Y-54724819D02*
X154409048Y-54724819D01*
X154694762Y-54724819D02*
X154694762Y-53724819D01*
X154694762Y-53724819D02*
X154599524Y-53867676D01*
X154599524Y-53867676D02*
X154504286Y-53962914D01*
X154504286Y-53962914D02*
X154409048Y-54010533D01*
D11*
X151119733Y-73076036D02*
X151175371Y-73020398D01*
X151175371Y-73020398D02*
X151342285Y-72964759D01*
X151342285Y-72964759D02*
X151453561Y-72964759D01*
X151453561Y-72964759D02*
X151620476Y-73020398D01*
X151620476Y-73020398D02*
X151731752Y-73131674D01*
X151731752Y-73131674D02*
X151787390Y-73242950D01*
X151787390Y-73242950D02*
X151843028Y-73465502D01*
X151843028Y-73465502D02*
X151843028Y-73632417D01*
X151843028Y-73632417D02*
X151787390Y-73854969D01*
X151787390Y-73854969D02*
X151731752Y-73966245D01*
X151731752Y-73966245D02*
X151620476Y-74077521D01*
X151620476Y-74077521D02*
X151453561Y-74133159D01*
X151453561Y-74133159D02*
X151342285Y-74133159D01*
X151342285Y-74133159D02*
X151175371Y-74077521D01*
X151175371Y-74077521D02*
X151119733Y-74021883D01*
X150118247Y-73743693D02*
X150118247Y-72964759D01*
X150396438Y-74188798D02*
X150674628Y-73354226D01*
X150674628Y-73354226D02*
X149951333Y-73354226D01*
X158230266Y-73923963D02*
X158174628Y-73979602D01*
X158174628Y-73979602D02*
X158007714Y-74035240D01*
X158007714Y-74035240D02*
X157896438Y-74035240D01*
X157896438Y-74035240D02*
X157729523Y-73979602D01*
X157729523Y-73979602D02*
X157618247Y-73868325D01*
X157618247Y-73868325D02*
X157562609Y-73757049D01*
X157562609Y-73757049D02*
X157506971Y-73534497D01*
X157506971Y-73534497D02*
X157506971Y-73367582D01*
X157506971Y-73367582D02*
X157562609Y-73145030D01*
X157562609Y-73145030D02*
X157618247Y-73033754D01*
X157618247Y-73033754D02*
X157729523Y-72922478D01*
X157729523Y-72922478D02*
X157896438Y-72866840D01*
X157896438Y-72866840D02*
X158007714Y-72866840D01*
X158007714Y-72866840D02*
X158174628Y-72922478D01*
X158174628Y-72922478D02*
X158230266Y-72978116D01*
X158619733Y-72866840D02*
X159343028Y-72866840D01*
X159343028Y-72866840D02*
X158953561Y-73311944D01*
X158953561Y-73311944D02*
X159120476Y-73311944D01*
X159120476Y-73311944D02*
X159231752Y-73367582D01*
X159231752Y-73367582D02*
X159287390Y-73423221D01*
X159287390Y-73423221D02*
X159343028Y-73534497D01*
X159343028Y-73534497D02*
X159343028Y-73812687D01*
X159343028Y-73812687D02*
X159287390Y-73923963D01*
X159287390Y-73923963D02*
X159231752Y-73979602D01*
X159231752Y-73979602D02*
X159120476Y-74035240D01*
X159120476Y-74035240D02*
X158786647Y-74035240D01*
X158786647Y-74035240D02*
X158675371Y-73979602D01*
X158675371Y-73979602D02*
X158619733Y-73923963D01*
D10*
X163583333Y-71304819D02*
X163250000Y-70828628D01*
X163011905Y-71304819D02*
X163011905Y-70304819D01*
X163011905Y-70304819D02*
X163392857Y-70304819D01*
X163392857Y-70304819D02*
X163488095Y-70352438D01*
X163488095Y-70352438D02*
X163535714Y-70400057D01*
X163535714Y-70400057D02*
X163583333Y-70495295D01*
X163583333Y-70495295D02*
X163583333Y-70638152D01*
X163583333Y-70638152D02*
X163535714Y-70733390D01*
X163535714Y-70733390D02*
X163488095Y-70781009D01*
X163488095Y-70781009D02*
X163392857Y-70828628D01*
X163392857Y-70828628D02*
X163011905Y-70828628D01*
X163916667Y-70304819D02*
X164535714Y-70304819D01*
X164535714Y-70304819D02*
X164202381Y-70685771D01*
X164202381Y-70685771D02*
X164345238Y-70685771D01*
X164345238Y-70685771D02*
X164440476Y-70733390D01*
X164440476Y-70733390D02*
X164488095Y-70781009D01*
X164488095Y-70781009D02*
X164535714Y-70876247D01*
X164535714Y-70876247D02*
X164535714Y-71114342D01*
X164535714Y-71114342D02*
X164488095Y-71209580D01*
X164488095Y-71209580D02*
X164440476Y-71257200D01*
X164440476Y-71257200D02*
X164345238Y-71304819D01*
X164345238Y-71304819D02*
X164059524Y-71304819D01*
X164059524Y-71304819D02*
X163964286Y-71257200D01*
X163964286Y-71257200D02*
X163916667Y-71209580D01*
D12*
X152431678Y-64463249D02*
X152431678Y-65208011D01*
X152431678Y-65208011D02*
X152475488Y-65295630D01*
X152475488Y-65295630D02*
X152519297Y-65339440D01*
X152519297Y-65339440D02*
X152606916Y-65383249D01*
X152606916Y-65383249D02*
X152782154Y-65383249D01*
X152782154Y-65383249D02*
X152869773Y-65339440D01*
X152869773Y-65339440D02*
X152913583Y-65295630D01*
X152913583Y-65295630D02*
X152957392Y-65208011D01*
X152957392Y-65208011D02*
X152957392Y-64463249D01*
X153877393Y-65383249D02*
X153351679Y-65383249D01*
X153614536Y-65383249D02*
X153614536Y-64463249D01*
X153614536Y-64463249D02*
X153526917Y-64594678D01*
X153526917Y-64594678D02*
X153439298Y-64682297D01*
X153439298Y-64682297D02*
X153351679Y-64726106D01*
D11*
X157576036Y-66765266D02*
X157520398Y-66709628D01*
X157520398Y-66709628D02*
X157464759Y-66542714D01*
X157464759Y-66542714D02*
X157464759Y-66431438D01*
X157464759Y-66431438D02*
X157520398Y-66264523D01*
X157520398Y-66264523D02*
X157631674Y-66153247D01*
X157631674Y-66153247D02*
X157742950Y-66097609D01*
X157742950Y-66097609D02*
X157965502Y-66041971D01*
X157965502Y-66041971D02*
X158132417Y-66041971D01*
X158132417Y-66041971D02*
X158354969Y-66097609D01*
X158354969Y-66097609D02*
X158466245Y-66153247D01*
X158466245Y-66153247D02*
X158577521Y-66264523D01*
X158577521Y-66264523D02*
X158633159Y-66431438D01*
X158633159Y-66431438D02*
X158633159Y-66542714D01*
X158633159Y-66542714D02*
X158577521Y-66709628D01*
X158577521Y-66709628D02*
X158521883Y-66765266D01*
X158521883Y-67210371D02*
X158577521Y-67266009D01*
X158577521Y-67266009D02*
X158633159Y-67377285D01*
X158633159Y-67377285D02*
X158633159Y-67655476D01*
X158633159Y-67655476D02*
X158577521Y-67766752D01*
X158577521Y-67766752D02*
X158521883Y-67822390D01*
X158521883Y-67822390D02*
X158410607Y-67878028D01*
X158410607Y-67878028D02*
X158299331Y-67878028D01*
X158299331Y-67878028D02*
X158132417Y-67822390D01*
X158132417Y-67822390D02*
X157464759Y-67154733D01*
X157464759Y-67154733D02*
X157464759Y-67878028D01*
X150923963Y-68154733D02*
X150979602Y-68210371D01*
X150979602Y-68210371D02*
X151035240Y-68377285D01*
X151035240Y-68377285D02*
X151035240Y-68488561D01*
X151035240Y-68488561D02*
X150979602Y-68655476D01*
X150979602Y-68655476D02*
X150868325Y-68766752D01*
X150868325Y-68766752D02*
X150757049Y-68822390D01*
X150757049Y-68822390D02*
X150534497Y-68878028D01*
X150534497Y-68878028D02*
X150367582Y-68878028D01*
X150367582Y-68878028D02*
X150145030Y-68822390D01*
X150145030Y-68822390D02*
X150033754Y-68766752D01*
X150033754Y-68766752D02*
X149922478Y-68655476D01*
X149922478Y-68655476D02*
X149866840Y-68488561D01*
X149866840Y-68488561D02*
X149866840Y-68377285D01*
X149866840Y-68377285D02*
X149922478Y-68210371D01*
X149922478Y-68210371D02*
X149978116Y-68154733D01*
X151035240Y-67041971D02*
X151035240Y-67709628D01*
X151035240Y-67375800D02*
X149866840Y-67375800D01*
X149866840Y-67375800D02*
X150033754Y-67487076D01*
X150033754Y-67487076D02*
X150145030Y-67598352D01*
X150145030Y-67598352D02*
X150200668Y-67709628D01*
D10*
X167583333Y-71304819D02*
X167250000Y-70828628D01*
X167011905Y-71304819D02*
X167011905Y-70304819D01*
X167011905Y-70304819D02*
X167392857Y-70304819D01*
X167392857Y-70304819D02*
X167488095Y-70352438D01*
X167488095Y-70352438D02*
X167535714Y-70400057D01*
X167535714Y-70400057D02*
X167583333Y-70495295D01*
X167583333Y-70495295D02*
X167583333Y-70638152D01*
X167583333Y-70638152D02*
X167535714Y-70733390D01*
X167535714Y-70733390D02*
X167488095Y-70781009D01*
X167488095Y-70781009D02*
X167392857Y-70828628D01*
X167392857Y-70828628D02*
X167011905Y-70828628D01*
X168440476Y-70638152D02*
X168440476Y-71304819D01*
X168202381Y-70257200D02*
X167964286Y-70971485D01*
X167964286Y-70971485D02*
X168583333Y-70971485D01*
X145333333Y-71304819D02*
X145000000Y-70828628D01*
X144761905Y-71304819D02*
X144761905Y-70304819D01*
X144761905Y-70304819D02*
X145142857Y-70304819D01*
X145142857Y-70304819D02*
X145238095Y-70352438D01*
X145238095Y-70352438D02*
X145285714Y-70400057D01*
X145285714Y-70400057D02*
X145333333Y-70495295D01*
X145333333Y-70495295D02*
X145333333Y-70638152D01*
X145333333Y-70638152D02*
X145285714Y-70733390D01*
X145285714Y-70733390D02*
X145238095Y-70781009D01*
X145238095Y-70781009D02*
X145142857Y-70828628D01*
X145142857Y-70828628D02*
X144761905Y-70828628D01*
X145714286Y-70400057D02*
X145761905Y-70352438D01*
X145761905Y-70352438D02*
X145857143Y-70304819D01*
X145857143Y-70304819D02*
X146095238Y-70304819D01*
X146095238Y-70304819D02*
X146190476Y-70352438D01*
X146190476Y-70352438D02*
X146238095Y-70400057D01*
X146238095Y-70400057D02*
X146285714Y-70495295D01*
X146285714Y-70495295D02*
X146285714Y-70590533D01*
X146285714Y-70590533D02*
X146238095Y-70733390D01*
X146238095Y-70733390D02*
X145666667Y-71304819D01*
X145666667Y-71304819D02*
X146285714Y-71304819D01*
X141333333Y-71304819D02*
X141000000Y-70828628D01*
X140761905Y-71304819D02*
X140761905Y-70304819D01*
X140761905Y-70304819D02*
X141142857Y-70304819D01*
X141142857Y-70304819D02*
X141238095Y-70352438D01*
X141238095Y-70352438D02*
X141285714Y-70400057D01*
X141285714Y-70400057D02*
X141333333Y-70495295D01*
X141333333Y-70495295D02*
X141333333Y-70638152D01*
X141333333Y-70638152D02*
X141285714Y-70733390D01*
X141285714Y-70733390D02*
X141238095Y-70781009D01*
X141238095Y-70781009D02*
X141142857Y-70828628D01*
X141142857Y-70828628D02*
X140761905Y-70828628D01*
X142285714Y-71304819D02*
X141714286Y-71304819D01*
X142000000Y-71304819D02*
X142000000Y-70304819D01*
X142000000Y-70304819D02*
X141904762Y-70447676D01*
X141904762Y-70447676D02*
X141809524Y-70542914D01*
X141809524Y-70542914D02*
X141714286Y-70590533D01*
X163533333Y-61659580D02*
X163485714Y-61707200D01*
X163485714Y-61707200D02*
X163342857Y-61754819D01*
X163342857Y-61754819D02*
X163247619Y-61754819D01*
X163247619Y-61754819D02*
X163104762Y-61707200D01*
X163104762Y-61707200D02*
X163009524Y-61611961D01*
X163009524Y-61611961D02*
X162961905Y-61516723D01*
X162961905Y-61516723D02*
X162914286Y-61326247D01*
X162914286Y-61326247D02*
X162914286Y-61183390D01*
X162914286Y-61183390D02*
X162961905Y-60992914D01*
X162961905Y-60992914D02*
X163009524Y-60897676D01*
X163009524Y-60897676D02*
X163104762Y-60802438D01*
X163104762Y-60802438D02*
X163247619Y-60754819D01*
X163247619Y-60754819D02*
X163342857Y-60754819D01*
X163342857Y-60754819D02*
X163485714Y-60802438D01*
X163485714Y-60802438D02*
X163533333Y-60850057D01*
X164390476Y-60754819D02*
X164200000Y-60754819D01*
X164200000Y-60754819D02*
X164104762Y-60802438D01*
X164104762Y-60802438D02*
X164057143Y-60850057D01*
X164057143Y-60850057D02*
X163961905Y-60992914D01*
X163961905Y-60992914D02*
X163914286Y-61183390D01*
X163914286Y-61183390D02*
X163914286Y-61564342D01*
X163914286Y-61564342D02*
X163961905Y-61659580D01*
X163961905Y-61659580D02*
X164009524Y-61707200D01*
X164009524Y-61707200D02*
X164104762Y-61754819D01*
X164104762Y-61754819D02*
X164295238Y-61754819D01*
X164295238Y-61754819D02*
X164390476Y-61707200D01*
X164390476Y-61707200D02*
X164438095Y-61659580D01*
X164438095Y-61659580D02*
X164485714Y-61564342D01*
X164485714Y-61564342D02*
X164485714Y-61326247D01*
X164485714Y-61326247D02*
X164438095Y-61231009D01*
X164438095Y-61231009D02*
X164390476Y-61183390D01*
X164390476Y-61183390D02*
X164295238Y-61135771D01*
X164295238Y-61135771D02*
X164104762Y-61135771D01*
X164104762Y-61135771D02*
X164009524Y-61183390D01*
X164009524Y-61183390D02*
X163961905Y-61231009D01*
X163961905Y-61231009D02*
X163914286Y-61326247D01*
X144133333Y-61659580D02*
X144085714Y-61707200D01*
X144085714Y-61707200D02*
X143942857Y-61754819D01*
X143942857Y-61754819D02*
X143847619Y-61754819D01*
X143847619Y-61754819D02*
X143704762Y-61707200D01*
X143704762Y-61707200D02*
X143609524Y-61611961D01*
X143609524Y-61611961D02*
X143561905Y-61516723D01*
X143561905Y-61516723D02*
X143514286Y-61326247D01*
X143514286Y-61326247D02*
X143514286Y-61183390D01*
X143514286Y-61183390D02*
X143561905Y-60992914D01*
X143561905Y-60992914D02*
X143609524Y-60897676D01*
X143609524Y-60897676D02*
X143704762Y-60802438D01*
X143704762Y-60802438D02*
X143847619Y-60754819D01*
X143847619Y-60754819D02*
X143942857Y-60754819D01*
X143942857Y-60754819D02*
X144085714Y-60802438D01*
X144085714Y-60802438D02*
X144133333Y-60850057D01*
X145038095Y-60754819D02*
X144561905Y-60754819D01*
X144561905Y-60754819D02*
X144514286Y-61231009D01*
X144514286Y-61231009D02*
X144561905Y-61183390D01*
X144561905Y-61183390D02*
X144657143Y-61135771D01*
X144657143Y-61135771D02*
X144895238Y-61135771D01*
X144895238Y-61135771D02*
X144990476Y-61183390D01*
X144990476Y-61183390D02*
X145038095Y-61231009D01*
X145038095Y-61231009D02*
X145085714Y-61326247D01*
X145085714Y-61326247D02*
X145085714Y-61564342D01*
X145085714Y-61564342D02*
X145038095Y-61659580D01*
X145038095Y-61659580D02*
X144990476Y-61707200D01*
X144990476Y-61707200D02*
X144895238Y-61754819D01*
X144895238Y-61754819D02*
X144657143Y-61754819D01*
X144657143Y-61754819D02*
X144561905Y-61707200D01*
X144561905Y-61707200D02*
X144514286Y-61659580D01*
D13*
%TO.C,L1*%
X155450000Y-55300000D02*
X152950000Y-55300000D01*
X152950000Y-63700000D02*
X155450000Y-63700000D01*
D14*
%TO.C,C4*%
X151725000Y-74350000D02*
X150125000Y-74350000D01*
X151725000Y-72650000D02*
X150125000Y-72650000D01*
D15*
X153525000Y-73500000D02*
X153525000Y-73500000D01*
X153425000Y-73500000D02*
G75*
G02*
X153525000Y-73500000I50000J0D01*
G01*
X153425000Y-73500000D02*
X153425000Y-73500000D01*
X153525000Y-73500000D02*
G75*
G02*
X153425000Y-73500000I-50000J0D01*
G01*
X153525000Y-73500000D02*
X153525000Y-73500000D01*
X153425000Y-73500000D02*
G75*
G02*
X153525000Y-73500000I50000J0D01*
G01*
D14*
%TO.C,C3*%
X157625000Y-72650000D02*
X159225000Y-72650000D01*
X157625000Y-74350000D02*
X159225000Y-74350000D01*
D15*
X155825000Y-73500000D02*
X155825000Y-73500000D01*
X155925000Y-73500000D02*
G75*
G02*
X155825000Y-73500000I-50000J0D01*
G01*
X155925000Y-73500000D02*
X155925000Y-73500000D01*
X155825000Y-73500000D02*
G75*
G02*
X155925000Y-73500000I50000J0D01*
G01*
X155825000Y-73500000D02*
X155825000Y-73500000D01*
X155925000Y-73500000D02*
G75*
G02*
X155825000Y-73500000I-50000J0D01*
G01*
D13*
%TO.C,R3*%
X163567017Y-75210000D02*
X163932983Y-75210000D01*
X163567017Y-71790000D02*
X163932983Y-71790000D01*
D16*
%TO.C,U1*%
X153410000Y-69350000D02*
X154810000Y-69350000D01*
X153410000Y-66150000D02*
X154810000Y-66150000D01*
D14*
X151960000Y-66500000D02*
G75*
G02*
X151760000Y-66500000I-100000J0D01*
G01*
X151760000Y-66500000D02*
G75*
G02*
X151960000Y-66500000I100000J0D01*
G01*
D13*
%TO.C,R4*%
X167567017Y-71790000D02*
X167932983Y-71790000D01*
X167567017Y-75210000D02*
X167932983Y-75210000D01*
%TO.C,R2*%
X145317017Y-71790000D02*
X145682983Y-71790000D01*
X145317017Y-75210000D02*
X145682983Y-75210000D01*
%TO.C,R1*%
X141317017Y-71790000D02*
X141682983Y-71790000D01*
X141317017Y-75210000D02*
X141682983Y-75210000D01*
%TO.C,C6*%
X160075000Y-63315000D02*
X160700000Y-63315000D01*
X160387500Y-63002500D02*
X160387500Y-63627500D01*
X160940000Y-63304437D02*
X160940000Y-63940000D01*
X160940000Y-63304437D02*
X162004437Y-62240000D01*
X160940000Y-66695563D02*
X160940000Y-66060000D01*
X160940000Y-66695563D02*
X162004437Y-67760000D01*
X162004437Y-62240000D02*
X166460000Y-62240000D01*
X162004437Y-67760000D02*
X166460000Y-67760000D01*
X166460000Y-62240000D02*
X166460000Y-63940000D01*
X166460000Y-67760000D02*
X166460000Y-66060000D01*
%TO.C,C5*%
X140675000Y-63315000D02*
X141300000Y-63315000D01*
X140987500Y-63002500D02*
X140987500Y-63627500D01*
X141540000Y-63304437D02*
X141540000Y-63940000D01*
X141540000Y-63304437D02*
X142604437Y-62240000D01*
X141540000Y-66695563D02*
X141540000Y-66060000D01*
X141540000Y-66695563D02*
X142604437Y-67760000D01*
X142604437Y-62240000D02*
X147060000Y-62240000D01*
X142604437Y-67760000D02*
X147060000Y-67760000D01*
X147060000Y-62240000D02*
X147060000Y-63940000D01*
X147060000Y-67760000D02*
X147060000Y-66060000D01*
%TD*%
M02*
