%TF.GenerationSoftware,KiCad,Pcbnew,9.0.4*%
%TF.CreationDate,2025-09-16T01:09:41+05:30*%
%TF.ProjectId,PCB designing,50434220-6465-4736-9967-6e696e672e6b,rev?*%
%TF.SameCoordinates,Original*%
%TF.FileFunction,Copper,L1,Top*%
%TF.FilePolarity,Positive*%
%FSLAX46Y46*%
G04 Gerber Fmt 4.6, Leading zero omitted, Abs format (unit mm)*
G04 Created by KiCad (PCBNEW 9.0.4) date 2025-09-16 01:09:41*
%MOMM*%
%LPD*%
G01*
G04 APERTURE LIST*
G04 Aperture macros list*
%AMRoundRect*
0 Rectangle with rounded corners*
0 $1 Rounding radius*
0 $2 $3 $4 $5 $6 $7 $8 $9 X,Y pos of 4 corners*
0 Add a 4 corners polygon primitive as box body*
4,1,4,$2,$3,$4,$5,$6,$7,$8,$9,$2,$3,0*
0 Add four circle primitives for the rounded corners*
1,1,$1+$1,$2,$3*
1,1,$1+$1,$4,$5*
1,1,$1+$1,$6,$7*
1,1,$1+$1,$8,$9*
0 Add four rect primitives between the rounded corners*
20,1,$1+$1,$2,$3,$4,$5,0*
20,1,$1+$1,$4,$5,$6,$7,0*
20,1,$1+$1,$6,$7,$8,$9,0*
20,1,$1+$1,$8,$9,$2,$3,0*%
G04 Aperture macros list end*
%TA.AperFunction,EtchedComponent*%
%ADD10C,0.000000*%
%TD*%
%TA.AperFunction,SMDPad,CuDef*%
%ADD11R,2.600000X8.200000*%
%TD*%
%TA.AperFunction,SMDPad,CuDef*%
%ADD12R,0.850000X1.200000*%
%TD*%
%TA.AperFunction,SMDPad,CuDef*%
%ADD13RoundRect,0.250000X-0.250000X-1.450000X0.250000X-1.450000X0.250000X1.450000X-0.250000X1.450000X0*%
%TD*%
%TA.AperFunction,ComponentPad*%
%ADD14C,0.300000*%
%TD*%
%TA.AperFunction,SMDPad,CuDef*%
%ADD15R,0.500000X0.500000*%
%TD*%
%TA.AperFunction,SMDPad,CuDef*%
%ADD16RoundRect,0.050000X-0.260000X-0.075000X0.260000X-0.075000X0.260000X0.075000X-0.260000X0.075000X0*%
%TD*%
%TA.AperFunction,SMDPad,CuDef*%
%ADD17R,0.620000X0.600000*%
%TD*%
%TA.AperFunction,SMDPad,CuDef*%
%ADD18RoundRect,0.250000X-1.250000X-0.550000X1.250000X-0.550000X1.250000X0.550000X-1.250000X0.550000X0*%
%TD*%
%TA.AperFunction,ViaPad*%
%ADD19C,0.600000*%
%TD*%
%TA.AperFunction,Conductor*%
%ADD20C,0.200000*%
%TD*%
G04 APERTURE END LIST*
D10*
%TA.AperFunction,EtchedComponent*%
%TO.C,U1*%
G36*
X154765000Y-66547929D02*
G01*
X154765000Y-68952071D01*
X154712071Y-69005000D01*
X153507929Y-69005000D01*
X153455000Y-68952071D01*
X153455000Y-66547929D01*
X153507929Y-66495000D01*
X154712071Y-66495000D01*
X154765000Y-66547929D01*
G37*
%TD.AperFunction*%
%TD*%
D11*
%TO.P,L1,2,2*%
%TO.N,Vout*%
X157000000Y-59500000D03*
%TO.P,L1,1,1*%
%TO.N,Net-(C1-Pad2)*%
X151400000Y-59500000D03*
%TD*%
D12*
%TO.P,C4,1,1*%
%TO.N,Vin*%
X152500000Y-73500000D03*
%TO.P,C4,2,2*%
%TO.N,GNDREF*%
X149350000Y-73500000D03*
%TD*%
%TO.P,C3,1,1*%
%TO.N,Vin*%
X156850000Y-73500000D03*
%TO.P,C3,2,2*%
%TO.N,GNDREF*%
X160000000Y-73500000D03*
%TD*%
D13*
%TO.P,R3,2*%
%TO.N,GND*%
X164500000Y-73500000D03*
%TO.P,R3,1*%
%TO.N,Net-(U1-FB)*%
X163000000Y-73500000D03*
%TD*%
D14*
%TO.P,U1,16*%
%TO.N,N/C*%
X154110000Y-68750000D03*
%TO.P,U1,15*%
X154110000Y-67750000D03*
%TO.P,U1,14*%
X154110000Y-66750000D03*
D15*
%TO.P,U1,13,PGND*%
%TO.N,GNDREF*%
X154110000Y-67750000D03*
D16*
%TO.P,U1,12,VIN*%
%TO.N,Vin*%
X155500000Y-66500000D03*
%TO.P,U1,11,VIN*%
X155500000Y-67000000D03*
%TO.P,U1,10,VIN*%
X155500000Y-67500000D03*
%TO.P,U1,9,EN*%
X155500000Y-68000000D03*
%TO.P,U1,8,AGND*%
%TO.N,GND*%
X155500000Y-68500000D03*
%TO.P,U1,7,FB*%
%TO.N,Net-(U1-FB)*%
X155500000Y-69000000D03*
%TO.P,U1,6,RT*%
%TO.N,Net-(U1-RT)*%
X152720000Y-69000000D03*
%TO.P,U1,5,PG*%
%TO.N,MCU3.3V*%
X152720000Y-68500000D03*
%TO.P,U1,4,BOOT*%
%TO.N,Net-(U1-BOOT)*%
X152720000Y-68000000D03*
%TO.P,U1,3,SW*%
%TO.N,Net-(C1-Pad2)*%
X152720000Y-67500000D03*
%TO.P,U1,2,SW*%
X152720000Y-67000000D03*
%TO.P,U1,1,SW*%
X152720000Y-66500000D03*
%TD*%
D17*
%TO.P,C2,2,2*%
%TO.N,GNDREF*%
X158000000Y-67420000D03*
%TO.P,C2,1,1*%
%TO.N,Vin*%
X158000000Y-66500000D03*
%TD*%
%TO.P,C1,2,2*%
%TO.N,Net-(C1-Pad2)*%
X150500000Y-67500000D03*
%TO.P,C1,1,1*%
%TO.N,Net-(U1-BOOT)*%
X150500000Y-68420000D03*
%TD*%
D13*
%TO.P,R4,1*%
%TO.N,Vout*%
X167000000Y-73500000D03*
%TO.P,R4,2*%
%TO.N,Net-(C6-Pad1)*%
X168500000Y-73500000D03*
%TD*%
%TO.P,R2,1*%
%TO.N,Vout*%
X144750000Y-73500000D03*
%TO.P,R2,2*%
%TO.N,Net-(U1-FB)*%
X146250000Y-73500000D03*
%TD*%
%TO.P,R1,1*%
%TO.N,Net-(U1-RT)*%
X140750000Y-73500000D03*
%TO.P,R1,2*%
%TO.N,GND*%
X142250000Y-73500000D03*
%TD*%
D18*
%TO.P,C6,1*%
%TO.N,Net-(C6-Pad1)*%
X161500000Y-65000000D03*
%TO.P,C6,2*%
%TO.N,Net-(U1-FB)*%
X165900000Y-65000000D03*
%TD*%
%TO.P,C5,1*%
%TO.N,Vout*%
X142100000Y-65000000D03*
%TO.P,C5,2*%
%TO.N,GNDREF*%
X146500000Y-65000000D03*
%TD*%
D19*
%TO.N,GND*%
X164000000Y-70500000D03*
%TO.N,GNDREF*%
X148000000Y-67500000D03*
X158500000Y-65000000D03*
%TD*%
D20*
%TO.N,Vin*%
X155500000Y-66500000D02*
X155500000Y-68000000D01*
%TO.N,Net-(C1-Pad2)*%
X152720000Y-66500000D02*
X152720000Y-67000000D01*
%TO.N,Vin*%
X157000000Y-68000000D02*
X155500000Y-68000000D01*
X157500000Y-68500000D02*
X157000000Y-68000000D01*
X156850000Y-73500000D02*
X157500000Y-72850000D01*
X157500000Y-72850000D02*
X157500000Y-68500000D01*
%TO.N,Net-(U1-FB)*%
X155500000Y-70000000D02*
X155500000Y-69000000D01*
X155000000Y-70500000D02*
X155500000Y-70000000D01*
X147500000Y-70500000D02*
X155000000Y-70500000D01*
X146250000Y-71750000D02*
X147500000Y-70500000D01*
X146250000Y-73500000D02*
X146250000Y-71750000D01*
%TO.N,Vout*%
X144750000Y-75750000D02*
X144750000Y-73500000D01*
X144500000Y-76000000D02*
X144750000Y-75750000D01*
X139500000Y-75500000D02*
X140000000Y-76000000D01*
X140000000Y-76000000D02*
X144500000Y-76000000D01*
X139500000Y-67600000D02*
X139500000Y-75500000D01*
X142100000Y-65000000D02*
X139500000Y-67600000D01*
%TO.N,Net-(U1-FB)*%
X146250000Y-74750000D02*
X146250000Y-73500000D01*
X162000000Y-76000000D02*
X147500000Y-76000000D01*
X147500000Y-76000000D02*
X146250000Y-74750000D01*
X163000000Y-75000000D02*
X162000000Y-76000000D01*
X163000000Y-73500000D02*
X163000000Y-75000000D01*
%TO.N,Vout*%
X167500000Y-76000000D02*
X167000000Y-75500000D01*
X170000000Y-76000000D02*
X167500000Y-76000000D01*
X167000000Y-75500000D02*
X167000000Y-73500000D01*
X170500000Y-62500000D02*
X170500000Y-75500000D01*
X167500000Y-59500000D02*
X170500000Y-62500000D01*
X157000000Y-59500000D02*
X167500000Y-59500000D01*
X170500000Y-75500000D02*
X170000000Y-76000000D01*
%TO.N,Net-(C6-Pad1)*%
X169500000Y-62500000D02*
X169500000Y-72500000D01*
X162000000Y-61500000D02*
X168500000Y-61500000D01*
X161500000Y-62000000D02*
X162000000Y-61500000D01*
X161500000Y-65000000D02*
X161500000Y-62000000D01*
X168500000Y-61500000D02*
X169500000Y-62500000D01*
X169500000Y-72500000D02*
X168500000Y-73500000D01*
%TO.N,GNDREF*%
X160000000Y-68000000D02*
X159000000Y-67000000D01*
X160000000Y-73500000D02*
X160000000Y-68000000D01*
%TO.N,GND*%
X164500000Y-71000000D02*
X164000000Y-70500000D01*
X164500000Y-73500000D02*
X164500000Y-71000000D01*
%TO.N,GNDREF*%
X148000000Y-66500000D02*
X148000000Y-67500000D01*
X146500000Y-65000000D02*
X148000000Y-66500000D01*
%TO.N,Vin*%
X156500000Y-66500000D02*
X158000000Y-66500000D01*
%TO.N,GNDREF*%
X159000000Y-67000000D02*
X159000000Y-65500000D01*
X158580000Y-67420000D02*
X159000000Y-67000000D01*
X158000000Y-67420000D02*
X158580000Y-67420000D01*
X159000000Y-65500000D02*
X158500000Y-65000000D01*
%TO.N,Vout*%
X142000000Y-57000000D02*
X142100000Y-57100000D01*
X142000000Y-56500000D02*
X142000000Y-57000000D01*
X156500000Y-54500000D02*
X144000000Y-54500000D01*
X157000000Y-55000000D02*
X156500000Y-54500000D01*
X144000000Y-54500000D02*
X142000000Y-56500000D01*
X142100000Y-57100000D02*
X142100000Y-65000000D01*
X157000000Y-59500000D02*
X157000000Y-55000000D01*
%TO.N,Net-(U1-FB)*%
X163000000Y-67900000D02*
X163000000Y-73500000D01*
X165900000Y-65000000D02*
X163000000Y-67900000D01*
%TO.N,Vin*%
X152500000Y-73500000D02*
X156850000Y-73500000D01*
%TO.N,Net-(U1-RT)*%
X152699000Y-69021000D02*
X152720000Y-69000000D01*
X143529000Y-69021000D02*
X152699000Y-69021000D01*
X140750000Y-71800000D02*
X143529000Y-69021000D01*
X140750000Y-73500000D02*
X140750000Y-71800000D01*
%TO.N,Net-(C1-Pad2)*%
X149000000Y-66500000D02*
X150000000Y-67500000D01*
X150000000Y-67500000D02*
X150500000Y-67500000D01*
X149000000Y-60000000D02*
X149000000Y-66500000D01*
X149500000Y-59500000D02*
X149000000Y-60000000D01*
X151400000Y-59500000D02*
X149500000Y-59500000D01*
X151400000Y-59500000D02*
X151400000Y-65180000D01*
X151400000Y-65180000D02*
X152720000Y-66500000D01*
%TO.N,Vin*%
X155500000Y-66500000D02*
X156500000Y-66500000D01*
%TO.N,Net-(U1-BOOT)*%
X152387226Y-68000000D02*
X152720000Y-68000000D01*
X151967226Y-68420000D02*
X152387226Y-68000000D01*
X150500000Y-68420000D02*
X151967226Y-68420000D01*
%TO.N,Net-(C1-Pad2)*%
X150500000Y-67500000D02*
X152720000Y-67500000D01*
%TO.N,Vout*%
X167000000Y-72000000D02*
X167000000Y-73500000D01*
%TD*%
M02*
